<?xml version="1.0" encoding="UTF-8" standalone="no"?>
<!-- Created with Inkscape (http://www.inkscape.org/) -->
<svg
   xmlns:dc="http://purl.org/dc/elements/1.1/"
   xmlns:cc="http://creativecommons.org/ns#"
   xmlns:rdf="http://www.w3.org/1999/02/22-rdf-syntax-ns#"
   xmlns:svg="http://www.w3.org/2000/svg"
   xmlns="http://www.w3.org/2000/svg"
   xmlns:sodipodi="http://sodipodi.sourceforge.net/DTD/sodipodi-0.dtd"
   xmlns:inkscape="http://www.inkscape.org/namespaces/inkscape"
   width="257.04715"
   height="34.757946"
   id="svg2497"
   sodipodi:version="0.32"
   inkscape:version="0.46"
   version="1.0"
   sodipodi:docname="Black &amp; Decker logo.svg"
   inkscape:output_extension="org.inkscape.output.svg.inkscape">
  <defs
     id="defs2499">
    <inkscape:perspective
       sodipodi:type="inkscape:persp3d"
       inkscape:vp_x="0 : 526.18109 : 1"
       inkscape:vp_y="0 : 1000 : 0"
       inkscape:vp_z="744.09448 : 526.18109 : 1"
       inkscape:persp3d-origin="372.04724 : 350.78739 : 1"
       id="perspective2505" />
    <inkscape:perspective
       id="perspective2518"
       inkscape:persp3d-origin="372.04724 : 350.78739 : 1"
       inkscape:vp_z="744.09448 : 526.18109 : 1"
       inkscape:vp_y="0 : 1000 : 0"
       inkscape:vp_x="0 : 526.18109 : 1"
       sodipodi:type="inkscape:persp3d" />
  </defs>
  <sodipodi:namedview
     id="base"
     pagecolor="#ffffff"
     bordercolor="#666666"
     borderopacity="1.0"
     gridtolerance="10000"
     guidetolerance="10"
     objecttolerance="10"
     inkscape:pageopacity="0.0"
     inkscape:pageshadow="2"
     inkscape:zoom="3.7113811"
     inkscape:cx="90.769513"
     inkscape:cy="14.019958"
     inkscape:document-units="px"
     inkscape:current-layer="layer1"
     showgrid="false"
     showguides="true"
     inkscape:guide-bbox="true"
     inkscape:window-width="1024"
     inkscape:window-height="721"
     inkscape:window-x="-4"
     inkscape:window-y="-4" />
  <metadata
     id="metadata2502">
    <rdf:RDF>
      <cc:Work
         rdf:about="">
        <dc:format>image/svg+xml</dc:format>
        <dc:type
           rdf:resource="http://purl.org/dc/dcmitype/StillImage" />
      </cc:Work>
    </rdf:RDF>
  </metadata>
  <g
     inkscape:label="Layer 1"
     inkscape:groupmode="layer"
     id="layer1"
     transform="translate(-211.69649,-452.83902)">
    <path
       style="font-size:784.05249023px;font-style:normal;font-weight:normal;text-align:start;line-height:125%;text-anchor:start;fill:#000000;fill-opacity:1;stroke:none;stroke-width:1px;stroke-linecap:butt;stroke-linejoin:miter;stroke-opacity:1;font-family:Bitstream Vera Sans"
       d="M 258.1287,479.4118 L 261.23262,479.4118 C 262.28489,479.41182 263.0653,479.2667 263.57384,478.97645 C 264.55411,478.39601 265.04429,477.27054 265.04438,475.60003 C 265.04429,474.32947 264.79006,473.40395 264.28169,472.82346 C 263.66459,472.13447 262.68479,471.78996 261.34228,471.78993 L 258.1287,471.78993 L 258.1287,479.4118 z M 270.54269,476.41755 C 270.5426,479.35754 269.47196,481.40854 267.33077,482.57055 C 266.0601,483.25958 264.40844,483.60409 262.37581,483.60408 L 252.63039,483.60408 L 252.63039,456.5977 L 262.43065,456.5977 C 264.82662,456.59775 266.62339,457.03365 267.82095,457.9054 C 269.34512,459.03092 270.10725,460.91852 270.10735,463.56822 L 269.94451,465.20159 C 269.72619,466.32599 269.24515,467.26038 268.50139,468.00475 C 267.75744,468.74919 266.78622,469.24823 265.58773,469.50187 C 267.29468,469.82869 268.54699,470.50054 269.34466,471.51742 C 269.78102,472.06136 270.08981,472.75979 270.27102,473.61273 C 270.45204,474.46572 270.5426,475.40066 270.54269,476.41755 L 270.54269,476.41755 z M 264.71704,464.1664 C 264.71695,463.18608 264.42672,462.36939 263.84635,461.71634 C 263.2658,461.06336 262.50367,460.73685 261.55996,460.73681 L 258.1287,460.73681 L 258.1287,467.59599 L 261.8308,467.59599 C 262.44773,467.59602 263.0196,467.40549 263.54643,467.02439 C 264.07307,466.64336 264.42727,466.03576 264.60903,465.20159 C 264.68095,464.9834 264.71695,464.63834 264.71704,464.1664 L 264.71704,464.1664 z M 305.71595,483.60408 L 299.89029,483.60408 L 298.42142,477.61558 L 290.90756,477.61558 L 289.38218,483.60408 L 272.34057,483.60408 L 272.34057,456.5977 L 277.83888,456.5977 L 277.83888,479.08446 L 285.18991,479.08446 L 291.23323,456.5977 L 298.52942,456.5977 L 305.71595,483.60408 z M 291.99592,473.42331 L 297.27656,473.42331 L 294.60965,461.77034 L 291.99592,473.42331 z M 314.59234,480.01165 C 315.46289,480.01166 316.09791,479.63032 316.49739,478.86762 C 316.89659,478.10495 317.09627,476.65297 317.09641,474.51167 L 322.54155,474.51167 C 322.5414,477.99667 321.89697,480.45587 320.60825,481.88928 C 319.31924,483.32272 317.31394,484.03944 314.59234,484.03942 C 310.67188,484.03944 308.07643,482.75113 306.80597,480.17448 C 305.89859,478.3589 305.44497,475.00132 305.4451,470.10172 C 305.44497,464.51095 306.07113,460.78088 307.32357,458.91151 C 308.57574,457.04223 310.99867,456.10757 314.59234,456.10752 C 317.31394,456.10757 319.27382,456.8517 320.472,458.33992 C 321.66988,459.82822 322.2689,462.07888 322.26904,465.09192 L 316.8239,465.09192 C 316.82376,463.27747 316.66037,462.00716 316.33372,461.28099 C 316.0068,460.5549 315.42634,460.19184 314.59234,460.1918 C 313.39362,460.19184 312.61293,460.73629 312.25028,461.82517 C 311.88736,462.91413 311.70596,465.67297 311.7061,470.10172 C 311.70596,474.71109 311.83308,477.51508 312.08744,478.51369 C 312.34153,479.51235 313.1765,480.01166 314.59234,480.01165 L 314.59234,480.01165 z M 335.22805,456.5977 L 341.27137,456.5977 L 333.86552,468.68602 L 341.27137,483.60408 L 335.06355,483.60408 L 328.74771,469.71955 L 328.63971,483.60408 L 323.13973,483.60408 L 323.13973,456.5977 L 328.63971,456.5977 L 328.63971,468.141 L 335.22805,456.5977 z M 345.84416,468.74085 C 345.15497,467.90564 344.66535,467.30635 344.37529,466.94297 C 343.86666,466.32599 343.4856,465.74553 343.23209,465.20159 C 342.72346,464.29327 342.46924,463.22208 342.4694,461.98801 C 342.46924,460.02844 343.14081,458.5496 344.48412,457.55148 C 345.8271,456.55344 347.60586,456.0544 349.82043,456.05435 C 351.70675,456.0544 353.24929,456.43546 354.44805,457.19755 C 355.93558,458.14139 356.67943,459.61138 356.67961,461.6075 L 354.44805,461.6075 C 354.44787,460.59062 353.95769,459.74652 352.97751,459.07518 C 351.99698,458.40393 350.87151,458.06828 349.60109,458.06824 C 348.44,458.06828 347.35136,458.38593 346.33517,459.02118 C 345.31864,459.65652 344.81046,460.48207 344.81063,461.49783 C 344.81046,462.98668 345.19153,464.22127 345.95383,465.20159 L 355.31874,476.79806 C 355.53679,476.18107 355.67304,475.42808 355.7275,474.53909 C 355.7816,473.65014 355.80874,471.64429 355.80892,468.52152 L 357.98731,468.52152 C 357.98713,471.96997 357.93257,474.23891 357.82364,475.32836 C 357.71434,476.41785 357.42384,477.5796 356.95212,478.81361 L 360.76388,483.60408 L 357.76964,483.60408 L 355.75409,480.88234 C 354.7381,482.15294 353.64946,483.00591 352.48817,483.44124 C 351.32651,483.8766 349.83798,484.09427 348.02255,484.09425 C 346.02622,484.09427 344.4294,483.56809 343.23209,482.51571 C 341.74311,481.20859 340.9987,479.21187 340.99887,476.52556 C 340.9987,475.40122 341.13495,474.43969 341.40763,473.64098 C 341.67997,472.84232 342.07017,472.15247 342.57824,471.57143 C 343.08598,470.99044 343.67585,470.43684 344.34787,469.91063 C 345.01955,469.38448 345.51831,468.99456 345.84416,468.74085 L 345.84416,468.74085 z M 343.3401,476.47239 C 343.33993,480.21106 345.22753,482.08038 349.00291,482.08037 C 350.09165,482.08038 351.12629,481.81702 352.10682,481.29026 C 353.087,480.76355 353.81258,480.01056 354.28355,479.03129 L 347.25987,470.31939 L 345.73616,471.51742 C 344.90074,472.20647 344.31973,472.85949 343.99311,473.47648 C 343.5576,474.27519 343.33993,475.27383 343.3401,476.47239 L 343.3401,476.47239 z M 370.07396,483.60408 L 361.08956,483.60408 L 361.08956,456.5977 L 370.29163,456.5977 C 373.05084,456.59775 375.10183,457.34215 376.44463,458.83093 C 377.6419,460.17356 378.38631,462.29711 378.67785,465.20159 C 378.82276,466.47221 378.89532,468.05075 378.89552,469.93722 L 378.89552,471.51742 C 378.89532,474.89276 378.4777,477.46994 377.64266,479.24896 C 376.26331,482.15239 373.74041,483.60409 370.07396,483.60408 L 370.07396,483.60408 z M 369.47578,460.73681 L 366.58954,460.73681 L 366.58954,479.4118 L 369.2581,479.4118 C 370.81873,479.41182 371.8805,478.84022 372.44344,477.697 C 373.00598,476.55383 373.28734,474.49397 373.28754,471.51742 L 373.28754,470.10172 L 373.28754,468.79402 C 373.28734,467.48802 373.22365,466.19971 373.09645,464.92909 C 372.96887,463.65853 372.65094,462.67818 372.14268,461.98801 C 371.52547,461.15391 370.6365,460.73685 369.47578,460.73681 L 369.47578,460.73681 z M 380.74657,456.5977 L 395.17445,456.5977 L 395.17445,460.73681 L 386.24488,460.73681 L 386.24488,467.37832 L 394.4666,467.37832 L 394.4666,471.51742 L 386.24488,471.51742 L 386.24488,479.4118 L 395.44696,479.4118 L 395.44696,483.60408 L 380.74657,483.60408 L 380.74657,456.5977 z M 404.97471,480.01165 C 405.84628,480.01166 406.48185,479.63032 406.88142,478.86762 C 407.28053,478.10495 407.4802,476.65297 407.48044,474.51167 L 412.92558,474.51167 C 412.92534,477.99667 412.28091,480.45587 410.99228,481.88928 C 409.70318,483.32272 407.69732,484.03944 404.97471,484.03942 C 401.05527,484.03944 398.46037,482.75113 397.19,480.17448 C 396.28142,478.3589 395.82725,475.00132 395.82747,470.10172 C 395.82725,464.51095 396.4534,460.78088 397.70593,458.91151 C 398.95802,457.04223 401.38094,456.10757 404.97471,456.10752 C 407.69732,456.10757 409.65776,456.8517 410.85603,458.33992 C 412.05382,459.82822 412.65283,462.07888 412.65307,465.09192 L 407.20793,465.09192 C 407.2077,463.27747 407.04431,462.00716 406.71775,461.28099 C 406.39073,460.5549 405.80972,460.19184 404.97471,460.1918 C 403.777,460.19184 402.99687,460.73629 402.63431,461.82517 C 402.2713,462.91413 402.0899,465.67297 402.09013,470.10172 C 402.0899,474.71109 402.21702,477.51508 402.47147,478.51369 C 402.72547,479.51235 403.55988,480.01166 404.97471,480.01165 L 404.97471,480.01165 z M 426.04742,456.5977 L 432.09075,456.5977 L 424.68655,468.68602 L 432.09075,483.60408 L 425.88292,483.60408 L 419.56709,469.71955 L 419.45908,483.60408 L 413.95911,483.60408 L 413.95911,456.5977 L 419.45908,456.5977 L 419.45908,468.141 L 426.04742,456.5977 z M 432.14558,456.5977 L 446.57346,456.5977 L 446.57346,460.73681 L 437.64389,460.73681 L 437.64389,467.37832 L 445.86561,467.37832 L 445.86561,471.51742 L 437.64389,471.51742 L 437.64389,479.4118 L 446.84597,479.4118 L 446.84597,483.60408 L 432.14558,483.60408 L 432.14558,456.5977 z M 458.33443,464.27607 C 458.33415,461.9166 457.39035,460.73685 455.50303,460.73681 L 453.05379,460.73681 L 453.05379,468.25067 L 455.50303,468.25067 C 456.40999,468.2507 457.1087,467.93306 457.59917,467.29773 C 458.08906,466.66247 458.33415,465.65525 458.33443,464.27607 L 458.33443,464.27607 z M 463.83441,475.65487 C 463.83412,476.99748 463.87954,478.52202 463.97066,480.22849 C 464.06121,481.93499 464.21519,483.06019 464.43259,483.60408 L 459.04229,483.60408 C 458.78833,483.06019 458.62521,482.46145 458.55294,481.80786 C 458.4801,481.15431 458.44382,480.44646 458.4441,479.68431 L 458.4441,478.32344 L 458.4441,477.1254 C 458.44382,475.52805 458.24387,474.40258 457.84425,473.74898 C 457.30007,472.84177 456.17515,472.38814 454.4695,472.38812 L 453.05379,472.38812 L 453.05379,483.60408 L 447.49898,483.60408 L 447.49898,456.5977 L 457.73625,456.5977 C 459.65902,456.59775 461.17414,457.2059 462.28162,458.42217 C 463.38853,459.63852 463.94213,461.37159 463.94241,463.62139 C 463.94213,466.01748 463.50678,467.70569 462.63638,468.68602 C 461.94596,469.44818 460.74793,469.97436 459.04229,470.26456 C 459.65902,470.4097 460.27603,470.55482 460.89333,470.69991 C 461.36495,470.8816 461.81885,471.16297 462.25504,471.54401 C 462.69065,471.9251 463.06285,472.45156 463.37165,473.12338 C 463.67987,473.79526 463.83412,474.63909 463.83441,475.65487 L 463.83441,475.65487 z"
       id="text2507"
       sodipodi:nodetypes="cccssccccscccccccscsscccsccccscccccccccccccccccccccsccsscssssccssssscccccccccccccccscssssccssssccsccsccccssssssscccsscccscccccccccccccccccscccssccccccccccccccccsccsscssssccsssssccccccccccccccccccccccccccccccccscccsccscccsccccccsscccsscc" />
    <path
       style="font-size:784.05249023px;font-style:normal;font-weight:normal;text-align:start;line-height:125%;text-anchor:start;fill:#fc7418;fill-opacity:1;stroke:none;stroke-width:1px;stroke-linecap:butt;stroke-linejoin:miter;stroke-opacity:1;font-family:Bitstream Vera Sans"
       d="M 222.45436,483.51648 L 239.16999,456.07748 L 246.98138,469.93667 L 239.16999,483.51648 L 222.45436,483.51648 z M 215.51108,471.42087 L 214.3909,469.29242 L 222.45436,456.07748 L 224.72207,456.07748 L 215.51108,471.42087 z M 216.37921,472.87685 L 226.57024,456.07748 L 228.83795,456.07748 L 217.55493,474.8643 L 216.37921,472.87685 z M 218.36665,476.43222 L 230.65794,456.07748 L 232.98205,456.07748 L 219.51504,478.36414 L 218.36665,476.43222 z M 220.27037,479.70818 L 234.54997,456.07748 L 236.92962,456.07748 L 221.39057,481.75203 L 220.27037,479.70818 z"
       id="path2525"
       sodipodi:nodetypes="ccccccccccccccccccccccccc" />
  </g>
</svg>
