<?xml version="1.0" encoding="UTF-8" standalone="no"?>
<!-- Created with Inkscape (http://www.inkscape.org/) -->

<svg
   xmlns:dc="http://purl.org/dc/elements/1.1/"
   xmlns:cc="http://creativecommons.org/ns#"
   xmlns:rdf="http://www.w3.org/1999/02/22-rdf-syntax-ns#"
   xmlns:svg="http://www.w3.org/2000/svg"
   xmlns="http://www.w3.org/2000/svg"
   xmlns:sodipodi="http://sodipodi.sourceforge.net/DTD/sodipodi-0.dtd"
   xmlns:inkscape="http://www.inkscape.org/namespaces/inkscape"
   width="291.06125"
   height="73.809372"
   id="svg2"
   version="1.1"
   inkscape:version="0.47 r22583"
   sodipodi:docname="New document 1">
  <defs
     id="defs4">
    <inkscape:perspective
       sodipodi:type="inkscape:persp3d"
       inkscape:vp_x="0 : 526.18109 : 1"
       inkscape:vp_y="0 : 1000 : 0"
       inkscape:vp_z="744.09448 : 526.18109 : 1"
       inkscape:persp3d-origin="372.04724 : 350.78739 : 1"
       id="perspective10" />
    <clipPath
       id="clipPath3006"
       clipPathUnits="userSpaceOnUse">
      <path
         id="path3008"
         d="m 0,792.015 612,0 0,-792 -612,0 0,792 z" />
    </clipPath>
    <clipPath
       id="clipPath3000"
       clipPathUnits="userSpaceOnUse">
      <path
         id="path3002"
         d="M 0,792 612,792 612,0 0,0 0,792 z" />
    </clipPath>
    <clipPath
       id="clipPath2990"
       clipPathUnits="userSpaceOnUse">
      <path
         id="path2992"
         d="m 0,792.015 612,0 0,-792 -612,0 0,792 z" />
    </clipPath>
    <clipPath
       id="clipPath2984"
       clipPathUnits="userSpaceOnUse">
      <path
         id="path2986"
         d="M 0,792 612,792 612,0 0,0 0,792 z" />
    </clipPath>
    <clipPath
       id="clipPath2972"
       clipPathUnits="userSpaceOnUse">
      <path
         id="path2974"
         clip-rule="evenodd"
         d="m 36.5,535.5 539,0 0,-421 -539,0 0,421 z" />
    </clipPath>
    <clipPath
       id="clipPath2962"
       clipPathUnits="userSpaceOnUse">
      <path
         id="path2964"
         d="m 0,792.015 612,0 0,-792 -612,0 0,792 z" />
    </clipPath>
    <clipPath
       id="clipPath2956"
       clipPathUnits="userSpaceOnUse">
      <path
         id="path2958"
         d="M 0,792 612,792 612,0 0,0 0,792 z" />
    </clipPath>
    <clipPath
       id="clipPath2942"
       clipPathUnits="userSpaceOnUse">
      <path
         id="path2944"
         d="m 443.692,74.873 0,-54.936 131.679,0 0,54.936" />
    </clipPath>
    <clipPath
       id="clipPath2894"
       clipPathUnits="userSpaceOnUse">
      <path
         id="path2896"
         d="m 0,792.015 612,0 0,-792 -612,0 0,792 z" />
    </clipPath>
    <clipPath
       id="clipPath2888"
       clipPathUnits="userSpaceOnUse">
      <path
         id="path2890"
         d="M 0,792 612,792 612,0 0,0 0,792 z" />
    </clipPath>
    <clipPath
       id="clipPath2852"
       clipPathUnits="userSpaceOnUse">
      <path
         id="path2854"
         d="m 37.56,761.048 232.849,0 0,-59.048 -232.849,0 0,59.048 z" />
    </clipPath>
    <clipPath
       id="clipPath2840"
       clipPathUnits="userSpaceOnUse">
      <path
         id="path2842"
         d="m 0,792.015 612,0 0,-792 -612,0 0,792 z" />
    </clipPath>
    <clipPath
       id="clipPath2834"
       clipPathUnits="userSpaceOnUse">
      <path
         id="path2836"
         d="M 0,792 612,792 612,0 0,0 0,792 z" />
    </clipPath>
    <inkscape:perspective
       id="perspective2824"
       inkscape:persp3d-origin="0.5 : 0.33333333 : 1"
       inkscape:vp_z="1 : 0.5 : 1"
       inkscape:vp_y="0 : 1000 : 0"
       inkscape:vp_x="0 : 0.5 : 1"
       sodipodi:type="inkscape:persp3d" />
  </defs>
  <sodipodi:namedview
     id="base"
     pagecolor="#ffffff"
     bordercolor="#666666"
     borderopacity="1.0"
     inkscape:pageopacity="0.0"
     inkscape:pageshadow="2"
     inkscape:zoom="2.8"
     inkscape:cx="188.74085"
     inkscape:cy="3.3557678"
     inkscape:document-units="px"
     inkscape:current-layer="layer1"
     showgrid="false"
     inkscape:window-width="1680"
     inkscape:window-height="1000"
     inkscape:window-x="-8"
     inkscape:window-y="-8"
     inkscape:window-maximized="1" />
  <metadata
     id="metadata7">
    <rdf:RDF>
      <cc:Work
         rdf:about="">
        <dc:format>image/svg+xml</dc:format>
        <dc:type
           rdf:resource="http://purl.org/dc/dcmitype/StillImage" />
        <dc:title></dc:title>
      </cc:Work>
    </rdf:RDF>
  </metadata>
  <g
     inkscape:label="Layer 1"
     inkscape:groupmode="layer"
     id="layer1"
     transform="translate(-216.59286,-319.71352)">
    <g
       id="g2848"
       transform="matrix(1.25,0,0,-1.25,169.64286,1271.0229)">
      <g
         id="g2850"
         clip-path="url(#clipPath2852)">
        <path
           d="m 38.107,702 231.755,0 0,58.5 -231.755,0 0,-58.5 z"
           style="fill:#231f20;fill-opacity:1;fill-rule:nonzero;stroke:none"
           id="path2856" />
        <path
           d="m 38.107,701.594 231.755,0 0,58.906 -231.755,0 0,-58.906 z m 231.755,0 z"
           style="fill:none;stroke:#231f20;stroke-width:1.09500003;stroke-linecap:butt;stroke-linejoin:miter;stroke-miterlimit:4;stroke-opacity:1;stroke-dasharray:none"
           id="path2858" />
      </g>
    </g>
    <path
       d="m 224.45036,387.53917 275.34625,0 0,-60.65 -275.34625,0 0,60.65 z"
       style="fill:#ee293d;fill-opacity:1;fill-rule:nonzero;stroke:none"
       id="path2860" />
    <path
       d="m 224.45036,387.53917 275.34625,0 0,-60.65 -275.34625,0 0,60.65 z m 275.34625,0 z"
       style="fill:none;stroke:#ee293d;stroke-width:2.27999997;stroke-linecap:butt;stroke-linejoin:miter;stroke-miterlimit:4;stroke-opacity:1;stroke-dasharray:none"
       id="path2862" />
    <path
       d="m 238.17286,368.86917 4.88875,6.39125 15.665,0 0,-8.7725 -11.53,0 0,-18.54875 11.53,0 0,-8.77125 -15.665,0 -4.88875,6.39125 0,23.31"
       style="fill:#ffffff;fill-opacity:1;fill-rule:nonzero;stroke:none"
       id="path2864" />
    <path
       d="m 272.10536,354.33167 4.26088,0 0,-6.3915 -4.26088,0 0,6.3915 z m 4.26125,0 z m 3.2525,-15.1625 6.015,6.87875 0,10.6525 -4.01,4.7625 7.01875,13.785 -9.775,0 -6.7675,-13.30375 0,13.30375 -9.02375,0 0,-36.07875 16.5425,0"
       style="fill:#ffffff;fill-opacity:1;fill-rule:nonzero;stroke:none"
       id="path2866" />
    <path
       d="m 301.32286,355.45917 5.01262,0 0,-7.51987 -5.01262,0 0,7.51987 z m 5.0125,0 z m -5.0125,9.02375 0,10.7775 -9.275,0 0,-29.70125 5.515,-6.39125 12.5325,0 5.515,6.39125 0,29.70125 -9.275,0 0,-10.7775 -5.0125,0"
       style="fill:#ffffff;fill-opacity:1;fill-rule:nonzero;stroke:none"
       id="path2868" />
    <path
       d="m 320.96786,339.16792 0,36.0925 9.02375,0 0,-12.7825 8.77125,0 0,-7.89625 -8.77125,0 0,-6.6425 8.77125,0 0,-8.77125 -17.795,0"
       style="fill:#ffffff;fill-opacity:1;fill-rule:nonzero;stroke:none"
       id="path2870" />
    <path
       d="m 366.17286,339.16792 -21.80625,0 -3.0075,8.77125 7.86875,0 0,27.32125 9.02375,0 0,-27.32125 5.1075,0 2.81375,-8.77125"
       style="fill:#ffffff;fill-opacity:1;fill-rule:nonzero;stroke:none"
       id="path2872" />
    <path
       d="m 380.32411,365.86042 -12.40625,-17.92125 2.8825,-8.77125 19.67625,0 -3.00875,8.77125 -8.6475,0 12.1575,17.54625 -3.13375,9.775 -20.93,0 3.14375,-9.4 10.26625,0"
       style="fill:#ffffff;fill-opacity:1;fill-rule:nonzero;stroke:none"
       id="path2874" />
    <path
       d="m 410.65286,353.20292 5.89125,-14.035 9.65,0 0,36.0925 -9.02375,0 0,-14.28625 -4.3875,10.15 -4.26,0 -4.38625,-10.15 0,14.28625 -9.0225,0 0,-36.0925 9.64875,0 5.89,14.035"
       style="fill:#ffffff;fill-opacity:1;fill-rule:nonzero;stroke:none"
       id="path2876" />
    <path
       d="m 476.66911,375.26042 9.0225,0 0,-36.0925 -9.0225,0 0,13.535 -6.14125,-13.535 -9.02375,0 0,36.0925 9.02375,0 0,-13.535 6.14125,13.535"
       style="fill:#ffffff;fill-opacity:1;fill-rule:nonzero;stroke:none"
       id="path2878" />
    <path
       d="m 441.73411,355.45917 5.01263,0 0,-7.51987 -5.01263,0 0,7.51987 z m 5.0125,0 z m -5.0125,9.02375 0,10.7775 -9.27375,0 0,-29.70125 5.51375,-6.39125 12.5325,0 5.515,6.39125 0,29.70125 -9.275,0 0,-10.7775 -5.0125,0"
       style="fill:#ffffff;fill-opacity:1;fill-rule:nonzero;stroke:none"
       id="path2880" />
    <path
       d="m 493.87661,342.79542 c 10e-4,1.59625 -1.13625,2.66875 -2.475,2.67 l 0,-0.009 c -1.375,0.009 -2.485,-1.06375 -2.485,-2.65875 -10e-4,-1.595 1.1075,-2.65875 2.4825,-2.66 1.33875,0 2.47625,1.0625 2.4775,2.6575 z m 0.99875,0 c -10e-4,-2.19125 -1.6425,-3.465 -3.47625,-3.46375 -1.8425,0.001 -3.48375,1.27625 -3.4825,3.4675 0.001,2.19125 1.6425,3.465 3.485,3.46375 1.835,-0.001 3.475,-1.27625 3.47375,-3.4675 z m -4.0525,0.295 0.37625,0 0.8625,1.5675 0.94375,0 -0.95375,-1.6325 c 0.495,-0.0362 0.89875,-0.28375 0.89875,-0.97125 -10e-4,-0.85375 -0.57,-1.1275 -1.5325,-1.1275 l -1.39375,10e-4 0.002,3.73125 0.7975,-0.001 -10e-4,-1.5675 z m 0,-0.6325 -10e-4,-0.8975 0.56,-0.001 c 0.3025,0 0.715,0.0275 0.71625,0.4125 0,0.4125 -0.21125,0.48625 -0.56875,0.48625 l -0.70625,0"
       style="fill:#ffffff;fill-opacity:1;fill-rule:nonzero;stroke:none"
       id="path2882" />
  </g>
</svg>
