<?xml version="1.0" encoding="UTF-8" ?>
<!DOCTYPE svg PUBLIC "-//W3C//DTD SVG 1.1//EN" "http://www.w3.org/Graphics/SVG/1.1/DTD/svg11.dtd">
<svg width="179pt" height="123pt" viewBox="0 0 179 123" version="1.1" xmlns="http://www.w3.org/2000/svg">
<!-- <path fill="#ffffff" d=" M 0.00 0.00 L 179.00 0.00 L 179.00 123.00 L 0.00 123.00 L 0.00 0.00 Z" /> -->
<path fill="#fd1929" d=" M 76.81 4.00 C 82.97 4.00 89.13 4.01 95.29 3.99 C 102.07 24.14 108.50 44.40 115.23 64.56 C 115.74 45.47 115.41 26.37 115.50 7.28 C 125.09 11.60 134.74 16.27 142.60 23.39 C 147.14 27.55 151.42 31.99 155.45 36.65 C 150.41 40.45 145.52 44.43 140.42 48.15 C 138.05 46.08 135.63 44.07 133.23 42.04 C 133.26 50.36 133.24 58.68 133.25 67.00 C 139.31 66.99 145.38 67.03 151.45 66.97 C 150.81 63.55 149.78 60.21 148.62 56.93 C 153.38 53.99 158.14 51.05 162.91 48.11 C 169.28 59.35 173.14 71.86 174.09 84.74 C 148.67 84.75 123.24 84.76 97.82 84.74 C 97.01 82.83 96.21 80.92 95.41 79.01 C 90.51 78.99 85.60 78.99 80.70 79.02 C 80.34 80.93 79.98 82.84 79.65 84.76 C 68.14 84.76 56.62 84.71 45.11 84.78 C 44.44 79.34 43.78 73.90 43.15 68.45 C 39.34 73.06 36.49 78.35 34.54 83.99 C 33.93 84.00 32.72 84.01 32.11 84.02 C 29.70 78.92 27.42 73.77 25.09 68.64 C 21.75 73.34 21.13 79.15 21.49 84.74 C 15.49 84.75 9.49 84.75 3.49 84.75 C 3.03 76.29 4.94 67.91 7.89 60.03 C 12.41 48.04 18.58 36.29 28.25 27.65 C 28.72 33.46 30.71 38.98 33.50 44.06 C 37.45 34.12 41.29 24.14 45.15 14.17 C 49.74 11.69 54.40 9.36 58.99 6.88 C 59.49 27.24 60.39 47.59 61.16 67.95 C 66.16 46.58 71.59 25.32 76.81 4.00 Z" />
<path fill="#ffffff" d=" M 87.71 38.40 C 89.25 45.58 90.60 52.80 92.07 60.00 C 89.02 60.00 85.96 60.00 82.91 60.00 C 84.48 52.79 86.07 45.59 87.71 38.40 Z" />
<path fill="#fd1929" d=" M 48.45 90.63 C 54.95 89.75 62.36 90.00 67.69 94.29 C 73.36 98.70 73.43 108.39 67.91 112.95 C 63.56 116.68 57.49 117.36 51.98 117.17 C 47.25 116.86 42.20 115.70 38.78 112.18 C 34.33 107.64 34.43 99.40 39.07 95.02 C 41.54 92.46 45.01 91.19 48.45 90.63 Z" />
<path fill="#fd1929" d=" M 86.50 90.76 C 93.04 89.71 100.48 89.88 106.02 93.95 C 111.94 98.25 112.28 108.03 106.80 112.81 C 103.07 116.18 97.84 117.05 92.98 117.22 C 87.81 117.19 82.20 116.37 78.19 112.83 C 73.76 109.00 73.08 101.91 76.07 97.02 C 78.42 93.51 82.43 91.50 86.50 90.76 Z" />
<path fill="#fd1929" d=" M 145.14 93.16 C 150.04 89.84 156.38 89.98 162.04 90.51 C 166.68 90.94 171.50 93.54 172.56 98.44 C 168.95 98.54 165.35 98.53 161.75 98.44 C 159.70 95.71 155.27 95.34 153.05 98.07 C 158.54 100.96 165.38 99.81 170.60 103.37 C 174.43 105.81 173.83 111.93 170.20 114.26 C 165.44 117.35 159.39 117.45 153.92 117.01 C 148.58 116.76 142.58 114.08 141.51 108.29 C 145.18 108.23 148.85 108.23 152.52 108.27 C 154.56 111.41 159.22 111.60 162.12 109.63 C 162.00 107.91 160.19 107.73 158.88 107.40 C 154.30 106.34 149.37 106.13 145.24 103.69 C 141.55 101.45 141.54 95.51 145.14 93.16 Z" />
<path fill="#fd1929" d=" M 3.75 91.01 C 14.17 90.99 24.58 91.00 35.00 91.00 C 35.00 93.25 35.00 95.50 35.00 97.75 C 31.75 97.75 28.50 97.74 25.25 97.75 C 25.24 104.00 25.25 110.25 25.25 116.49 C 21.42 116.50 17.58 116.50 13.75 116.49 C 13.75 110.25 13.75 104.00 13.75 97.75 C 10.42 97.74 7.08 97.75 3.75 97.74 C 3.75 95.50 3.75 93.25 3.75 91.01 Z" />
<path fill="#fd1929" d=" M 113.25 91.00 C 117.08 91.00 120.92 91.00 124.75 91.00 C 124.75 97.17 124.75 103.33 124.75 109.49 C 129.75 109.51 134.75 109.50 139.75 109.50 C 139.75 111.83 139.74 114.17 139.74 116.50 C 130.91 116.50 122.09 116.50 113.26 116.50 C 113.24 108.00 113.26 99.50 113.25 91.00 Z" />
<path fill="#ffffff" d=" M 50.40 97.46 C 53.56 96.43 58.36 96.55 59.81 100.16 C 60.73 103.30 60.86 107.86 57.60 109.71 C 54.22 111.33 48.62 110.83 47.51 106.59 C 46.77 103.42 46.92 98.95 50.40 97.46 Z" />
<path fill="#ffffff" d=" M 89.25 97.41 C 92.48 96.41 97.30 96.64 98.60 100.41 C 99.48 103.64 99.50 108.45 95.83 109.93 C 92.55 111.22 87.37 110.67 86.27 106.72 C 85.56 103.49 85.55 98.79 89.25 97.41 Z" />
</svg>
